name cmcinput
datacolumns 36
datarows 4
range 0.8101162790697668 0.8131162790697668
cursor 1.0 1.0 0.0
keys m_key
wrap
enforce_loops no
enforce_constraints no
calc_derivatives 0.001000
event_color 1.000000 0.000000 1.000000
endheader
time						calcn_r_tx						calcn_r_ty				calcn_r_tz					calcn_r_r1					calcn_r_r2					calcn_r_r3					calcn_l_tx					calcn_l_ty						calcn_l_tz					calcn_l_r1				calcn_l_r2					calcn_l_r3					pelvis_tz					pelvis_tx					pelvis_ty					pelvis_tilt					pelvis_list					pelvis_rotation				hip_flexion_r				hip_adduction_r				hip_rotation_r				knee_angle_r				ankle_angle_r				subtalar_angle_r				mtp_angle_r				hip_flexion_l				hip_adduction_l				hip_rotation_l				knee_angle_l				ankle_angle_l				subtalar_angle_l				mtp_angle_l				lumbar_extension			lumbar_bending				lumbar_rotation			
      0.8101162790697668	      0.8353288330786405	      0.1157184994730062	     -0.6128028892228018	     -0.2017086678950237	     11.7419758817275780	    -28.6862729100564770	      1.1751713654901330	      0.0700013417712064	     -0.8307564356762014	      2.8201644271390762	    -10.4802812590365320	      4.7087845702935187	     -0.7352177860778929	      1.1367268053620401	      0.8519679275933646	      0.1054280991232912	      0.4110926914638591	     -3.6408916534005802	     -1.9620582711009686	     -0.7839755596550494	     15.5603050919189890	    -28.7430503294937910	      1.9690034935228506	      0.0000000000000204	      0.0000000000000115	     22.2211404293564420	      0.6312055694950728	      6.0222173762821614	    -23.8873181095317090	      6.0481746930884528	     -0.0000000000000017	     -0.0000000000000014	     -8.2005361995022419	     -2.4894782792432282	      8.3856228761107179	    
      0.8111162790697668	      0.8354406789457572	      0.1157610953112620	     -0.6129217961757346	     -0.1868797193715164	     11.7284747382690000	    -28.7818332482761860	      1.1781669177975160	      0.0697572837685047	     -0.8306124292200209	      2.8294823429216298	    -10.4558832158345170	      4.8766723167497936	     -0.7351115525615339	      1.1378286491023362	      0.8516517504155259	      0.1576162590344911	      0.4487869179811909	     -3.7208978626318125	     -2.0542517575400132	     -0.8182846478095809	     15.6274552986637620	    -28.8266528481869140	      2.0003348720075222	      0.0000000000000200	      0.0000000000000116	     22.2568610121216750	      0.6327555332439803	      5.9185512439689534	    -23.7806776501684640	      6.0243583096313458	     -0.0000000000000017	     -0.0000000000000013	     -8.2449251580983240	     -2.5447720999018779	      8.4451179746019989	    
      0.8121162790697668	      0.8355540181876107	      0.1158039788268656	     -0.6130391870738811	     -0.1718606240450107	     11.7157828171501940	    -28.8781685779079530	      1.1811477314699388	      0.0695150519095274	     -0.8304644960063640	      2.8379706154500473	    -10.4309171240758670	      5.0426917191607306	     -0.7350068942849927	      1.1389323435616825	      0.8513330934874852	      0.2094563869001490	      0.4865895213572444	     -3.8001913534146512	     -2.1463867026114047	     -0.8529502634639880	     15.6944835792818600	    -28.9098951246228320	      2.0309255998852325	      0.0000000000000197	      0.0000000000000116	     22.2920243177705300	      0.6348588211378849	      5.8147898925454902	    -23.6744122182672210	      6.0000997257128788	     -0.0000000000000017	     -0.0000000000000012	     -8.2886608793684129	     -2.6000539014346864	      8.5033096934363748	    
      0.8131162790697668	      0.8356688529240585	      0.1158472430772702	     -0.6131550267395722	     -0.1566387245486440	     11.7039110408155320	    -28.9753152782906510	      1.1841136177207723	      0.0692745884519052	     -0.8303127606627114	      2.8456430288272907	    -10.4054186253198400	      5.2068598857414825	     -0.7349038216138178	      1.1400379040284867	      0.8510120156386865	      0.2609500842611616	      0.5245033475748531	     -3.8787445246513919	     -2.2384723826304196	     -0.8879679298392043	     15.7613697705508340	    -28.9927719719691590	      2.0607417678225213	      0.0000000000000194	      0.0000000000000117	     22.3266305428993130	      0.6375327262319512	      5.7109834869104112	    -23.5685540689182920	      5.9754457549277555	     -0.0000000000000017	     -0.0000000000000011	     -8.3317511537043814	     -2.6553261694063734	      8.5601631181441711	    
